<svg version="1.1" viewBox="0.0 0.0 640.0 640.0" fill="none" stroke="none" stroke-linecap="square" stroke-miterlimit="10" xmlns:xlink="http://www.w3.org/1999/xlink" xmlns="http://www.w3.org/2000/svg"><clipPath id="p.0"><path d="m0 0l640.0 0l0 640.0l-640.0 0l0 -640.0z" clip-rule="nonzero"/></clipPath><g clip-path="url(#p.0)"><path fill="#000000" fill-opacity="0.0" d="m0 0l640.0 0l0 640.0l-640.0 0z" fill-rule="evenodd"/><path fill="#134f5c" d="m8.493439 320.00262l0 0c0 -172.04323 139.46858 -311.5118 311.5118 -311.5118l0 0c82.61807 0 161.85233 32.8199 220.2721 91.23969c58.4198 58.419807 91.239746 137.65405 91.239746 220.27213l0 0c0 172.04321 -139.46863 311.51184 -311.51184 311.51184l0 0c-172.04323 0 -311.5118 -139.46863 -311.5118 -311.51184z" fill-rule="evenodd"/><path stroke="#0c343d" stroke-width="16.0" stroke-linejoin="round" stroke-linecap="butt" d="m8.493439 320.00262l0 0c0 -172.04323 139.46858 -311.5118 311.5118 -311.5118l0 0c82.61807 0 161.85233 32.8199 220.2721 91.23969c58.4198 58.419807 91.239746 137.65405 91.239746 220.27213l0 0c0 172.04321 -139.46863 311.51184 -311.51184 311.51184l0 0c-172.04323 0 -311.5118 -139.46863 -311.5118 -311.51184z" fill-rule="evenodd"/><path fill="#ffffff" d="m251.51215 147.93697c-16.481155 0 -30.884552 3.6848755 -43.21019 11.054626c-12.325638 7.2995453 -21.834 16.880219 -28.52507 28.74202c-6.6910706 11.861786 -10.036591 24.460556 -10.036591 37.79628c0 16.424011 4.9654694 29.373703 14.896423 38.849106c9.930939 9.475372 21.622696 14.213074 35.075256 14.213074c3.4511871 0 6.5854187 -1.7196045 9.40271 -5.1588135c2.8172913 -3.4392395 6.3741302 -8.633148 10.670486 -15.581757c6.0571747 -10.317657 12.0086975 -18.389282 17.854568 -24.21489c5.845886 -5.8256073 12.889099 -8.738419 21.1297 -8.738419c6.479767 0 12.536926 1.965271 18.171509 5.8957977c5.6345825 3.8603516 12.114349 10.317642 19.4393 19.371918l-166.8188 101.49196c-31.553642 19.86319 -47.330475 41.656586 -47.330475 65.38019c0 13.335724 4.437233 25.723877 13.311699 37.16458c8.874466 11.440643 20.988808 20.60019 36.34304 27.478638c15.354233 6.8784485 32.539703 10.317627 51.55641 10.317627c19.932343 0 36.061325 -5.1588135 48.386963 -15.476471c12.325638 -10.317627 24.334335 -23.899017 36.026108 -40.74417c5.211975 -7.369751 9.191406 -12.56366 11.938263 -15.581757c2.8172913 -3.0180664 5.5289307 -4.52713 8.134918 -4.52713c3.028595 0 7.3601685 4.983368 12.994751 14.950073c6.972809 11.159912 14.016022 20.845856 21.1297 29.057861c7.1136475 8.212006 17.150238 15.6519165 30.109772 22.319794c13.029968 6.6679077 29.053314 10.001801 48.070007 10.001801c19.509735 0 36.483917 -3.860321 50.922546 -11.581024c14.509033 -7.790863 25.778198 -18.248901 33.807465 -31.374054c8.029266 -13.195374 12.043915 -27.548859 12.043915 -43.060394c0 -15.090454 -3.3807373 -28.005035 -10.142242 -38.743805c-6.6910706 -10.80896 -14.68512 -19.020966 -23.982178 -24.636017c-9.297058 -5.615082 -17.854584 -8.422577 -25.672546 -8.422577c-3.028595 0 -6.05719 1.7546692 -9.085785 5.264099c-3.0285645 3.439209 -7.5714417 9.229706 -13.628632 17.371552c-9.930939 13.827057 -18.80542 24.425446 -26.623383 31.795197c-7.7475586 7.299591 -16.586792 10.949341 -26.517761 10.949341c-12.607361 0 -25.390808 -7.3346252 -38.35034 -22.003967l137.65982 -81.48834c19.861908 -11.651245 34.335724 -23.407745 43.42148 -35.2695c9.085754 -11.861801 13.628662 -25.969604 13.628662 -42.323425c0 -11.65123 -3.5568237 -22.881332 -10.670471 -33.690277c-7.1136475 -10.80896 -16.86856 -19.652664 -29.264618 -26.531082c-12.325653 -6.878433 -25.602112 -10.317657 -39.829437 -10.317657c-18.66455 0 -34.053986 4.9482574 -46.168335 14.844788c-12.114349 9.896515 -24.651306 23.26735 -37.61084 40.112473c-1.2677917 1.2633972 -2.8877258 3.2988434 -4.859833 6.106369c-1.9721069 2.8075256 -4.366791 5.6150665 -7.184082 8.422577c-2.8172913 2.8075256 -5.2824097 4.211273 -7.3953857 4.211273c-2.1834106 0 -6.3036804 -4.737686 -12.36087 -14.213074c-10.353546 -16.845139 -22.15094 -30.952942 -35.392212 -42.32341c-13.170837 -11.440674 -31.659302 -17.160995 -55.465393 -17.160995z" fill-rule="evenodd"/><path stroke="#134f5c" stroke-width="24.0" stroke-linejoin="round" stroke-linecap="butt" d="m251.51215 147.93697c-16.481155 0 -30.884552 3.6848755 -43.21019 11.054626c-12.325638 7.2995453 -21.834 16.880219 -28.52507 28.74202c-6.6910706 11.861786 -10.036591 24.460556 -10.036591 37.79628c0 16.424011 4.9654694 29.373703 14.896423 38.849106c9.930939 9.475372 21.622696 14.213074 35.075256 14.213074c3.4511871 0 6.5854187 -1.7196045 9.40271 -5.1588135c2.8172913 -3.4392395 6.3741302 -8.633148 10.670486 -15.581757c6.0571747 -10.317657 12.0086975 -18.389282 17.854568 -24.21489c5.845886 -5.8256073 12.889099 -8.738419 21.1297 -8.738419c6.479767 0 12.536926 1.965271 18.171509 5.8957977c5.6345825 3.8603516 12.114349 10.317642 19.4393 19.371918l-166.8188 101.49196c-31.553642 19.86319 -47.330475 41.656586 -47.330475 65.38019c0 13.335724 4.437233 25.723877 13.311699 37.16458c8.874466 11.440643 20.988808 20.60019 36.34304 27.478638c15.354233 6.8784485 32.539703 10.317627 51.55641 10.317627c19.932343 0 36.061325 -5.1588135 48.386963 -15.476471c12.325638 -10.317627 24.334335 -23.899017 36.026108 -40.74417c5.211975 -7.369751 9.191406 -12.56366 11.938263 -15.581757c2.8172913 -3.0180664 5.5289307 -4.52713 8.134918 -4.52713c3.028595 0 7.3601685 4.983368 12.994751 14.950073c6.972809 11.159912 14.016022 20.845856 21.1297 29.057861c7.1136475 8.212006 17.150238 15.6519165 30.109772 22.319794c13.029968 6.6679077 29.053314 10.001801 48.070007 10.001801c19.509735 0 36.483917 -3.860321 50.922546 -11.581024c14.509033 -7.790863 25.778198 -18.248901 33.807465 -31.374054c8.029266 -13.195374 12.043915 -27.548859 12.043915 -43.060394c0 -15.090454 -3.3807373 -28.005035 -10.142242 -38.743805c-6.6910706 -10.80896 -14.68512 -19.020966 -23.982178 -24.636017c-9.297058 -5.615082 -17.854584 -8.422577 -25.672546 -8.422577c-3.028595 0 -6.05719 1.7546692 -9.085785 5.264099c-3.0285645 3.439209 -7.5714417 9.229706 -13.628632 17.371552c-9.930939 13.827057 -18.80542 24.425446 -26.623383 31.795197c-7.7475586 7.299591 -16.586792 10.949341 -26.517761 10.949341c-12.607361 0 -25.390808 -7.3346252 -38.35034 -22.003967l137.65982 -81.48834c19.861908 -11.651245 34.335724 -23.407745 43.42148 -35.2695c9.085754 -11.861801 13.628662 -25.969604 13.628662 -42.323425c0 -11.65123 -3.5568237 -22.881332 -10.670471 -33.690277c-7.1136475 -10.80896 -16.86856 -19.652664 -29.264618 -26.531082c-12.325653 -6.878433 -25.602112 -10.317657 -39.829437 -10.317657c-18.66455 0 -34.053986 4.9482574 -46.168335 14.844788c-12.114349 9.896515 -24.651306 23.26735 -37.61084 40.112473c-1.2677917 1.2633972 -2.8877258 3.2988434 -4.859833 6.106369c-1.9721069 2.8075256 -4.366791 5.6150665 -7.184082 8.422577c-2.8172913 2.8075256 -5.2824097 4.211273 -7.3953857 4.211273c-2.1834106 0 -6.3036804 -4.737686 -12.36087 -14.213074c-10.353546 -16.845139 -22.15094 -30.952942 -35.392212 -42.32341c-13.170837 -11.440674 -31.659302 -17.160995 -55.465393 -17.160995z" fill-rule="evenodd"/></g></svg>